<svg width="12" height="13" viewBox="0 0 12 13" fill="none" xmlns="http://www.w3.org/2000/svg">
<path d="M11.0199 11.0367C11.3546 11.3715 11.3546 11.9142 11.0199 12.2489C10.6852 12.5837 10.1425 12.5837 9.80773 12.2489L4.66487 7.10606C4.34037 6.78157 4.32902 6.25906 4.63912 5.92078L9.3534 0.777925C9.67328 0.428966 10.2155 0.405392 10.5644 0.725271C10.9134 1.04515 10.937 1.58735 10.6171 1.93631L6.45737 6.47419L11.0199 11.0367Z" fill="#A0A0A0"/>
<path d="M6.8622 11.0367C7.19693 11.3715 7.19693 11.9142 6.8622 12.2489C6.52746 12.5837 5.98475 12.5837 5.65001 12.2489L0.507156 7.10606C0.18266 6.78157 0.171306 6.25906 0.481401 5.92078L5.19569 0.777925C5.51557 0.428966 6.05777 0.405392 6.40673 0.725271C6.75568 1.04515 6.77926 1.58735 6.45938 1.93631L2.29965 6.47419L6.8622 11.0367Z" fill="#A0A0A0"/>
</svg>
