<svg width="17" height="16" viewBox="0 0 17 16" fill="none" xmlns="http://www.w3.org/2000/svg">
<g clip-path="url(#clip0_2016_352)">
<path d="M8.25008 1.33334C10.8274 1.33334 12.9167 3.42268 12.9167 6.00001C12.9167 6.07568 12.9149 6.15094 12.9114 6.22572C14.4677 6.77334 15.5834 8.25641 15.5834 10C15.5834 12.2091 13.7925 14 11.5834 14H4.91675C2.70761 14 0.916748 12.2091 0.916748 10C0.916748 8.25641 2.03239 6.77334 3.58877 6.22572C3.58521 6.15094 3.58341 6.07568 3.58341 6.00001C3.58341 3.42268 5.67275 1.33334 8.25008 1.33334ZM8.25008 2.66668C6.40913 2.66668 4.91675 4.15906 4.91675 6.00001C4.91675 6.05432 4.91804 6.10843 4.9206 6.1623L4.96783 7.15394L4.0313 7.48348C2.97301 7.85581 2.25008 8.85928 2.25008 10C2.25008 11.4727 3.44399 12.6667 4.91675 12.6667H11.5834C13.0561 12.6667 14.2501 11.4727 14.2501 10C14.2501 8.52668 13.0567 7.33334 11.5834 7.33334C10.4054 7.33334 9.40588 8.09714 9.05288 9.15648L7.78768 8.73474C8.31708 7.14568 9.81675 6.00001 11.5834 6.00001C11.5834 4.15906 10.091 2.66668 8.25008 2.66668Z" fill="#A0A0A0"/>
</g>
<defs>
<clipPath id="clip0_2016_352">
<rect width="16" height="16" fill="white" transform="translate(0.25)"/>
</clipPath>
</defs>
</svg>
