<svg width="15" height="15" viewBox="0 0 15 15" fill="none" xmlns="http://www.w3.org/2000/svg">
<g clip-path="url(#clip0_2016_341)">
<path d="M7.47831 1.3913C4.11831 1.3913 1.39136 4.11825 1.39136 7.47825C1.39136 10.8383 4.11831 13.5652 7.47831 13.5652C10.8383 13.5652 13.5653 10.8383 13.5653 7.47825C13.5653 4.11825 10.8383 1.3913 7.47831 1.3913ZM7.47831 12.3478C4.78788 12.3478 2.60875 10.1687 2.60875 7.47825C2.60875 6.35217 2.99223 5.31738 3.63744 4.49564L10.4609 11.3191C9.63918 11.9643 8.6044 12.3478 7.47831 12.3478ZM11.3192 10.4609L4.49571 3.63738C5.31744 2.99217 6.35223 2.60869 7.47831 2.60869C10.1687 2.60869 12.3479 4.78782 12.3479 7.47825C12.3479 8.60434 11.9644 9.63912 11.3192 10.4609Z" fill="#545454"/>
</g>
<defs>
<clipPath id="clip0_2016_341">
<rect width="14.6087" height="14.6087" fill="white" transform="translate(0.17395 0.17392)"/>
</clipPath>
</defs>
</svg>
