<svg width="16" height="16" viewBox="0 0 16 16" fill="none" xmlns="http://www.w3.org/2000/svg">
<g clip-path="url(#clip0_2016_785)">
<path d="M8 15.8187L3.75734 11.576C2.91823 10.7369 2.34679 9.6678 2.11529 8.50392C1.88378 7.34003 2.0026 6.13364 2.45673 5.03729C2.91086 3.94093 3.6799 3.00387 4.66659 2.34458C5.65328 1.6853 6.81332 1.3334 8 1.3334C9.18669 1.3334 10.3467 1.6853 11.3334 2.34458C12.3201 3.00387 13.0891 3.94093 13.5433 5.03729C13.9974 6.13364 14.1162 7.34003 13.8847 8.50392C13.6532 9.6678 13.0818 10.7369 12.2427 11.576L8 15.8187ZM11.3 10.6334C11.9526 9.98069 12.397 9.14917 12.577 8.24394C12.7571 7.3387 12.6646 6.40042 12.3114 5.54772C11.9582 4.69503 11.36 3.96622 10.5926 3.45346C9.82519 2.94071 8.92296 2.66702 8 2.66702C7.07704 2.66702 6.17481 2.94071 5.40739 3.45346C4.63997 3.96622 4.04183 4.69503 3.68861 5.54772C3.33539 6.40042 3.24294 7.3387 3.42297 8.24394C3.603 9.14917 4.04741 9.98069 4.7 10.6334L8 13.9334L11.3 10.6334ZM8 8.66669C7.64638 8.66669 7.30724 8.52621 7.05719 8.27616C6.80715 8.02611 6.66667 7.68697 6.66667 7.33335C6.66667 6.97973 6.80715 6.64059 7.05719 6.39054C7.30724 6.1405 7.64638 6.00002 8 6.00002C8.35362 6.00002 8.69276 6.1405 8.94281 6.39054C9.19286 6.64059 9.33334 6.97973 9.33334 7.33335C9.33334 7.68697 9.19286 8.02611 8.94281 8.27616C8.69276 8.52621 8.35362 8.66669 8 8.66669Z" fill="#7E7E7E"/>
</g>
<defs>
<clipPath id="clip0_2016_785">
<rect width="16" height="16" fill="white"/>
</clipPath>
</defs>
</svg>
