<svg width="15" height="14" viewBox="0 0 15 14" fill="none" xmlns="http://www.w3.org/2000/svg">
<path fill-rule="evenodd" clip-rule="evenodd" d="M6.08341 11.4054C2.9538 11.4054 0.416748 8.9369 0.416748 5.89187C0.416748 2.84684 2.9538 0.378357 6.08341 0.378357C9.21303 0.378357 11.7501 2.84684 11.7501 5.89187C11.7501 7.166 11.3059 8.33919 10.5599 9.27283L14.3759 12.9857L13.3742 13.9603L9.5582 10.2475C8.59864 10.9732 7.3929 11.4054 6.08341 11.4054ZM10.3335 5.89192C10.3335 8.17569 8.43068 10.0271 6.08347 10.0271C3.73626 10.0271 1.83347 8.17569 1.83347 5.89192C1.83347 3.60814 3.73626 1.75678 6.08347 1.75678C8.43068 1.75678 10.3335 3.60814 10.3335 5.89192Z" fill="#545454"/>
</svg>
